<?xml version="1.0" standalone="no"?>
<!DOCTYPE svg PUBLIC "-//W3C//DTD SVG 20010904//EN"
 "http://www.w3.org/TR/2001/REC-SVG-20010904/DTD/svg10.dtd">
<svg version="1.0" xmlns="http://www.w3.org/2000/svg"
 width="512.000000pt" height="512.000000pt" viewBox="0 0 512.000000 512.000000"
 preserveAspectRatio="xMidYMid meet">

<g transform="translate(0.000000,512.000000) scale(0.100000,-0.100000)"
fill="#000000" stroke="none">
<path d="M2410 4020 c-794 -61 -1406 -563 -1446 -1189 -28 -417 230 -834 663
-1073 40 -22 75 -43 78 -47 2 -4 -16 -73 -41 -152 -114 -362 -129 -434 -99
-459 30 -25 159 52 545 324 151 107 168 116 200 111 19 -3 96 -8 170 -11 317
-15 660 55 931 190 708 355 951 1060 565 1640 -298 448 -925 714 -1566 666z
m-436 -899 c35 -33 36 -92 1 -126 -22 -23 -32 -25 -113 -25 l-89 0 -7 -52 c-4
-28 -4 -149 0 -268 9 -280 0 -310 -91 -310 -90 0 -100 33 -90 320 4 118 4 237
0 263 l-7 47 -80 0 c-82 0 -130 15 -142 45 -18 47 5 109 45 123 11 4 138 7
283 7 l264 0 26 -24z m323 2 c28 -19 43 -47 68 -123 10 -30 57 -154 106 -275
105 -263 119 -313 96 -348 -21 -33 -75 -51 -111 -38 -29 12 -61 57 -78 114
l-11 38 -145 -3 -144 -3 -25 -63 c-31 -78 -65 -101 -123 -83 -21 6 -43 18 -50
26 -27 32 -6 115 92 360 53 132 103 263 112 292 21 63 49 101 90 119 35 16 87
10 123 -13z m473 12 c44 -23 50 -62 50 -352 l0 -261 116 -4 c113 -3 116 -4
140 -31 38 -45 31 -98 -17 -122 -42 -22 -365 -21 -396 0 -38 27 -42 69 -36
408 5 277 8 325 22 341 32 37 76 44 121 21z m494 5 c39 -15 50 -47 56 -165 l5
-110 130 128 c72 71 140 133 153 138 29 11 64 -3 91 -37 39 -50 31 -67 -94
-194 l-116 -117 121 -158 c104 -137 120 -163 120 -196 0 -67 -82 -112 -137
-74 -12 8 -70 79 -129 157 -59 79 -109 145 -112 148 -2 3 -10 -4 -18 -14 -10
-14 -14 -51 -14 -134 0 -113 0 -114 -30 -143 -25 -25 -36 -30 -71 -27 -32 2
-47 9 -63 31 -20 28 -21 37 -19 375 l2 347 31 28 c32 29 53 33 94 17z"/>
<path d="M2216 2900 c-3 -8 -24 -66 -46 -127 l-40 -113 91 0 c89 0 90 0 83 23
-32 104 -83 229 -88 217z"/>
</g>
</svg>
